:SAMPLES-PER-SECOND 30
:FULLY-SPECIFIED
:DEGREES
544
root  -1.07022 5.93089 15.6661 -47.2598 -8.53218 1.68935
RightUpLeg  -87.9619 -4.90121 7.36073
RightLeg  91.8577 16.5385 -8.35075
RightFoot  31.2623 2.90146 -7.40412
RightToes  5.82077e-011 -3.18055e-015 -2.98177e-016
Spine  31.0173 2.68228 4.04385
Spine1  22.0351 0.396499 2.92738
HEad  -15.1404 2.60197 2.30705
LeftShoulder1  -3.88251e-019 9.70628e-020 -3.87848e-018
LeftArm  8.87226 64.7924 -23.0088
LeftForeArm  -12.1961 -13.2972 -3.68172
LeftHand  -6.16012 -8.30611 50.5481
RightShoulder  2.51478 5.85507 14.5005
RightArm  -5.92784 -34.2247 10.491
RightForeArm  -37.1418 3.29637 -8.30674
RightHand  -0.304469 -4.62995 -42.7481
LeftUpLeg  -87.3588 8.81975 -0.398987
LeftLeg  87.3138 -13.9822 18.8844
LeftFoot  31.0782 -1.96487 5.06208
LeftToes  5.91571e-011 -3.44359e-011 -3.93244e-011
545
root  -1.10914 5.91569 15.6586 -47.4284 -8.3541 1.91552
RightUpLeg  -87.8831 -4.74921 7.12714
RightLeg  91.8211 16.5443 -8.45702
RightFoot  31.5781 3.02825 -7.65614
RightToes  5.82077e-011 -3.18055e-015 -2.98177e-016
Spine  31.5801 2.6443 4.24999
Spine1  21.3509 0.55277 2.66654
HEad  -15.213 2.76747 1.95518
LeftShoulder1  -3.88251e-019 9.70628e-020 -3.87848e-018
LeftArm  8.20945 56.1263 -23.7308
LeftForeArm  -9.81798 -14.1194 -3.74089
LeftHand  -5.29699 -7.95251 45.3047
RightShoulder  2.18552 5.48579 12.6292
RightArm  -8.85283 -25.6772 13.8137
RightForeArm  -44.8246 2.5774 -8.81591
RightHand  0.750524 -7.48989 -40.1775
LeftUpLeg  -87.1951 8.9543 -0.727307
LeftLeg  87.3844 -13.9825 18.5352
LeftFoot  30.9128 -1.99357 5.15269
LeftToes  5.91571e-011 -3.44359e-011 -3.93244e-011
546
root  -1.15806 5.90094 15.6475 -47.7433 -8.22103 1.94738
RightUpLeg  -87.6639 -4.68337 7.03522
RightLeg  91.9265 16.5612 -8.48771
RightFoot  31.3736 3.08673 -7.83474
RightToes  5.82077e-011 -3.18055e-015 -2.98177e-016
Spine  32.0723 2.44105 4.67076
Spine1  20.9081 0.688816 2.30663
HEad  -15.2654 3.09685 1.67365
LeftShoulder1  -3.88251e-019 9.70628e-020 -3.87848e-018
LeftArm  6.43878 46.0579 -25.3229
LeftForeArm  -7.09302 -13.6852 -3.76715
LeftHand  -4.39867 -7.3735 39.8925
RightShoulder  1.87199 5.07643 10.8364
RightArm  -10.8486 -16.9752 17.3701
RightForeArm  -46.7617 2.08706 -9.13999
RightHand  1.15295 -8.82361 -37.7679
LeftUpLeg  -86.9177 8.92742 -0.817352
LeftLeg  87.4434 -13.9957 18.4473
LeftFoot  30.5409 -1.9838 5.17382
LeftToes  5.91571e-011 -3.44359e-011 -3.93244e-011
547
root  -1.2068 5.89191 15.6337 -48.0851 -8.08032 1.84353
RightUpLeg  -87.3469 -4.7762 7.03126
RightLeg  92.0393 16.5779 -8.50703
RightFoot  31.0663 3.09638 -7.91511
RightToes  5.82077e-011 -3.18055e-015 -2.98177e-016
Spine  32.3897 2.18557 5.23883
Spine1  20.7497 0.836294 1.94625
HEad  -15.3395 3.61337 1.72622
LeftShoulder1  -3.88251e-019 9.70628e-020 -3.87848e-018
LeftArm  4.27183 34.7863 -27.5527
LeftForeArm  -1.96153 -11.775 -3.77229
LeftHand  -3.59192 -7.06021 33.8767
RightShoulder  1.54539 4.61608 8.89404
RightArm  -11.9424 -8.43037 21.3041
RightForeArm  -40.3147 1.29756 -9.14101
RightHand  0.99214 -8.61419 -34.7981
LeftUpLeg  -86.5879 8.78197 -0.740092
LeftLeg  87.4138 -13.9999 18.6531
LeftFoot  30.2339 -1.97196 5.18212
LeftToes  5.91571e-011 -3.44359e-011 -3.93244e-011
548
root  -1.24839 5.87886 15.6129 -48.3621 -7.99543 1.84669
RightUpLeg  -87.0504 -4.77477 7.00118
RightLeg  91.9935 16.5863 -8.64855
RightFoot  31.0576 3.08428 -7.88723
RightToes  5.82077e-011 -3.18055e-015 -2.98177e-016
Spine  32.7022 2.04928 5.78094
Spine1  20.4104 1.06529 1.59841
HEad  -15.3464 4.31073 2.14791
LeftShoulder1  -3.88251e-019 9.70628e-020 -3.87848e-018
LeftArm  2.63798 23.0002 -30.0609
LeftForeArm  6.62659 -9.00564 -3.70188
LeftHand  -3.07066 -6.9987 29.3901
RightShoulder  1.20242 4.19475 6.59826
RightArm  -11.9621 -0.63422 25.7224
RightForeArm  -27.0722 0.417694 -8.95273
RightHand  0.374187 -6.7286 -32.9914
LeftUpLeg  -86.2701 8.77772 -0.652269
LeftLeg  87.3093 -13.9811 18.8745
LeftFoot  30.1451 -2.00006 5.26386
LeftToes  5.91571e-011 -3.44359e-011 -3.93244e-011
549
root  -1.2713 5.85618 15.5861 -48.5152 -8.02348 1.9744
RightUpLeg  -86.8776 -4.61208 6.97079
RightLeg  91.8112 16.5792 -8.82152
RightFoot  31.3196 3.10206 -7.88184
RightToes  5.82077e-011 -3.18055e-015 -2.98177e-016
Spine  33.2008 1.99907 6.2182
Spine1  19.5165 1.28376 1.24661
HEad  -15.1994 5.12012 2.79017
LeftShoulder1  -3.88251e-019 9.70628e-020 -3.87848e-018
LeftArm  2.59279 11.6396 -32.5056
LeftForeArm  18.2219 -6.79492 -3.66414
LeftHand  -2.9831 -7.1764 28.1623
RightShoulder  0.827108 3.82343 3.76813
RightArm  -10.5275 5.83298 30.6928
RightForeArm  -10.9997 0.432444 -8.67157
RightHand  -0.494354 -3.76342 -32.7679
LeftUpLeg  -86.0497 8.9436 -0.609431
LeftLeg  87.1634 -13.9376 18.9241
LeftFoot  30.3183 -2.05559 5.38141
LeftToes  5.91571e-011 -3.44359e-011 -3.93244e-011
550
root  -1.26456 5.8355 15.5686 -48.5474 -8.09756 2.02979
RightUpLeg  -86.8283 -4.53739 7.01371
RightLeg  91.661 16.5622 -8.8581
RightFoot  31.5804 3.17071 -7.99978
RightToes  5.82077e-011 -3.18055e-015 -2.98177e-016
Spine  33.8288 1.9236 6.60034
Spine1  18.2676 1.36522 1.0103
HEad  -14.8771 5.97816 3.51733
LeftShoulder1  -3.88251e-019 9.70628e-020 -3.87848e-018
LeftArm  4.67617 1.36522 -34.8238
LeftForeArm  30.4892 -6.63835 -3.83978
LeftHand  -3.09969 -7.77218 27.917
RightShoulder  0.426464 3.41816 0.542017
RightArm  -7.48266 10.7458 35.6291
RightForeArm  4.38788 2.86623 -8.4702
RightHand  -1.49394 -0.192795 -32.1117
LeftUpLeg  -85.9717 9.01733 -0.589829
LeftLeg  87.0462 -13.8954 18.8478
LeftFoot  30.635 -2.11329 5.48452
LeftToes  5.91571e-011 -3.44359e-011 -3.93244e-011
